<?xml version="1.0" encoding="UTF-8"?>
<svg width="233px" height="168px" viewBox="0 0 233 168" version="1.1" xmlns="http://www.w3.org/2000/svg" xmlns:xlink="http://www.w3.org/1999/xlink">
    <title>Ilustration</title>
    <defs>
        <polygon id="path-1" points="0 0 5.45694867 0 5.45694867 5.48367122 0 5.48367122"></polygon>
        <polygon id="path-3" points="-2.84217094e-14 0 49.6661926 0 49.6661926 94.6534941 -2.84217094e-14 94.6534941"></polygon>
        <polygon id="path-5" points="0 0 5.45694867 0 5.45694867 5.48367122 0 5.48367122"></polygon>
        <polygon id="path-7" points="0 0 49.6661926 0 49.6661926 94.6534941 0 94.6534941"></polygon>
        <style type="text/css">
            @import url('/fonts/fonts.css');
            text{font-family:'InterstateCondensed', sans-serif;}
        </style>
    </defs>
    <g id="Hooli---API-Only" stroke="none" stroke-width="1" fill="none" fill-rule="evenodd">
        <g id="Verified---to-Activate" transform="translate(-89.000000, -80.000000)">
            <g id="Ilustration" transform="translate(88.412155, 79.007353)">
                <g transform="translate(-0.000000, 0.000000)">
                    <rect id="Rectangle" fill="#FBD133" x="105.587845" y="16.9926469" width="26" height="23" rx="8"></rect>
                    <rect id="Rectangle" fill="#01ABE8" x="111.587845" y="21.9926469" width="14" height="22" rx="5"></rect>
                    <path d="M183.648781,96.0238048 C183.648781,131.938489 154.533687,161.053584 118.619003,161.053584 C82.7029394,161.053584 53.5878446,131.938489 53.5878446,96.0238048 C53.5878446,60.1077416 82.7029394,30.9926469 118.619003,30.9926469 C154.533687,30.9926469 183.648781,60.1077416 183.648781,96.0238048" id="Fill-1" fill="#FBD133"></path>
                    <g id="Group-2" transform="translate(65.498736, 49.992647)">
                        <g id="Weath-Leave">
                            <path d="M31.9079183,10.9705621 C30.4649199,10.3121632 29.4624328,9.10624244 29.037037,7.72344632 C30.3931209,7.15374911 31.9824166,7.12893375 33.4259548,7.78733267 C34.8689533,8.4452036 35.8709006,9.65165229 36.2962963,11.0344484 C34.9402125,11.6041456 33.3509168,11.628961 31.9079183,10.9705621" id="Fill-1" fill="#FFBF1E"></path>
                            <path d="M31.6580398,4.41015289 C31.0028736,5.86031142 29.8028739,6.86777285 28.4268672,7.29473684 C27.8594418,5.93192419 27.8352737,4.33474248 28.4899145,2.88458395 C29.1450807,1.43442542 30.3450804,0.426963996 31.7210871,0 C32.2885125,1.36281265 32.313206,2.95999436 31.6580398,4.41015289" id="Fill-3" fill="#FFBF1E"></path>
                            <path d="M26.0085647,14.3896621 C24.5654254,13.9416129 23.437862,12.8115204 22.8148148,11.3794052 C23.9727708,10.4997276 25.4376914,10.173074 26.8808307,10.6211231 C28.3239701,11.0685858 29.4510269,12.1992648 30.0740741,13.63138 C28.9161181,14.5110576 27.451704,14.8371248 26.0085647,14.3896621" id="Fill-5" fill="#FFBF1E"></path>
                            <path d="M25.7268285,7.7955756 C25.2809584,9.45282254 24.156362,10.7470923 22.7312119,11.4631579 C21.8558125,10.1328231 21.5313311,8.45114503 21.9766176,6.79389809 C22.4219041,5.13665115 23.5470841,3.84238142 24.9722342,3.12631579 C25.8476336,4.45665056 26.1726985,6.13832866 25.7268285,7.7955756" id="Fill-7" fill="#FFBF1E"></path>
                            <path d="M21.1168245,17.6919298 C19.6738135,17.5321318 18.4331579,16.5919972 17.6296296,15.2296725 C18.6075177,14.0644528 19.9586829,13.4109598 21.401694,13.5713796 C22.8451962,13.7305558 24.0853606,14.6706904 24.8888889,16.0336368 C23.9110009,17.1988565 22.5598356,17.8517278 21.1168245,17.6919298" id="Fill-9" fill="#FFBF1E"></path>
                            <path d="M19.6858959,11.626736 C19.5666303,13.2839513 18.8649586,14.7087729 17.8481843,15.6315789 C16.9785198,14.5085307 16.4907837,12.9573592 16.6105134,11.2995798 C16.729779,9.6423645 17.4314507,8.21754291 18.448225,7.29473684 C19.3178896,8.41834912 19.8051616,9.96952069 19.6858959,11.626736" id="Fill-11" fill="#FFBF1E"></path>
                            <path d="M17.2535458,22.9024587 C15.8105348,23.0622393 14.4598607,22.409439 13.4814815,21.2443459 C14.2850098,19.8815475 15.5256653,18.9415151 16.9686764,18.7817344 C18.4121786,18.6219538 19.7628527,19.2753758 20.7407407,20.4404689 C19.9377036,21.8026456 18.6965569,22.742678 17.2535458,22.9024587" id="Fill-13" fill="#FFBF1E"></path>
                            <path d="M14.5007101,16.5101061 C14.6199801,18.1673214 14.1326904,19.718493 13.2629942,20.8421053 C12.246183,19.9192992 11.5440217,18.4944776 11.4252158,16.8372623 C11.3059458,15.1794829 11.7932356,13.6283114 12.6629317,12.5052632 C13.6797429,13.4275052 14.3814402,14.8528908 14.5007101,16.5101061" id="Fill-15" fill="#FFBF1E"></path>
                            <path d="M13.3990655,27.9370181 C11.9560269,28.3845086 10.491715,28.0584211 9.33333333,27.1786889 C9.95684353,25.7464848 11.0838218,24.6157356 12.5268604,24.1682451 C13.969899,23.7207546 15.4342109,24.046842 16.5925926,24.9265743 C15.9690824,26.3587784 14.8421042,27.4889411 13.3990655,27.9370181" id="Fill-17" fill="#FFBF1E"></path>
                            <path d="M10.1712729,22.425733 C10.617143,24.0830955 10.292078,25.764891 9.41667865,27.0947368 C7.99152851,26.379203 6.86634854,25.0848429 6.42106206,23.4274804 C5.97577559,21.7701178 6.30025695,20.0883223 7.17565631,18.7578947 C8.60080646,19.4740103 9.72598643,20.7683704 10.1712729,22.425733" id="Fill-19" fill="#FFBF1E"></path>
                            <path d="M11.6476372,33.8969701 C10.2046388,34.5553382 8.61534309,34.530524 7.25925926,33.9603255 C7.68465498,32.577594 8.68660227,31.3717296 10.1296007,30.7133615 C11.573139,30.0555213 13.1624347,30.0798075 14.5185185,30.6500061 C14.0931228,32.0327376 13.0906357,33.2386019 11.6476372,33.8969701" id="Fill-21" fill="#FFBF1E"></path>
                            <path d="M6.7690828,29.9793208 C7.42424802,31.4294793 7.39955454,33.026661 6.83265537,34.3894737 C5.45665079,33.9625097 4.25612752,32.9550483 3.6014877,31.5048897 C2.94632248,30.0541887 2.97049057,28.4575495 3.53791513,27.0947368 C4.9139197,27.5217008 6.11391758,28.5291623 6.7690828,29.9793208" id="Fill-23" fill="#FFBF1E"></path>
                            <path d="M9.27343043,40.6489404 C8.03594906,41.6237765 6.54810426,41.8916835 5.18518519,41.5304411 C5.34953418,39.9656333 6.08270477,38.4837904 7.31967415,37.5089543 C8.55664354,36.5341183 10.0450003,36.2662112 11.4074074,36.6274536 C11.2435704,38.1922614 10.5103998,39.6741044 9.27343043,40.6489404" id="Fill-25" fill="#FFBF1E"></path>
                            <path d="M5.19198709,36.5338799 C6.16208207,37.7774091 6.42868619,39.2725253 6.06920064,40.6421053 C4.51200326,40.4769531 3.03736715,39.7401993 2.06727217,38.4971846 C1.09717719,37.2541699 0.83057307,35.7585392 1.19005862,34.3894737 C2.747256,34.5541114 4.22189211,35.2908652 5.19198709,36.5338799" id="Fill-27" fill="#FFBF1E"></path>
                            <path d="M8.93658511,47.2503486 C7.90883337,48.4891804 6.53816925,49.0619544 5.19312503,48.9692648 C5.11675805,47.3471973 5.5912187,45.6942333 6.61897045,44.4548073 C7.6462295,43.2159756 9.0173863,42.6437957 10.3624305,42.7358911 C10.4387975,44.3579586 9.96433685,46.0109226 8.93658511,47.2503486" id="Fill-29" fill="#FFBF1E"></path>
                            <g id="Group-33" transform="translate(0.000000, 42.782484)">
                                <mask id="mask-2" fill="white">
                                    <use xlink:href="#path-1"></use>
                                </mask>
                                <g id="Clip-32"></g>
                                <path d="M3.948,1.51631624 C5.02962963,2.60323203 5.52896296,4.05280045 5.44859259,5.47527414 C4.03303704,5.5560373 2.59,5.05426361 1.50837037,3.96786888 C0.427259259,2.88095309 -0.0720740741,1.43138467 0.0082962963,0.00838992828 C1.42385185,-0.0723732296 2.86637037,0.429921507 3.948,1.51631624" id="Fill-31" fill="#FFBF1E" mask="url(#mask-2)"></path>
                            </g>
                            <path d="M10.3771723,53.0868347 C9.40707729,54.3297472 7.93244119,55.0664403 6.37524381,55.2315789 C6.01575826,53.8621117 6.28236237,52.366604 7.25245735,51.1236916 C8.22255234,49.8807791 9.69718844,49.144086 11.2543858,48.9789474 C11.6138714,50.3484146 11.3472673,51.8439223 10.3771723,53.0868347" id="Fill-34" fill="#FFBF1E"></path>
                            <path d="M4.08773325,52.098649 C5.32521462,53.0734565 6.05787323,54.5552561 6.22222222,56.120018 C4.85930314,56.4812499 3.37145835,56.2127745 2.13397698,55.2385431 C0.897007598,54.2637356 0.163837004,52.7819361 0,51.2171741 C1.36240709,50.8553661 2.85076387,51.1238415 4.08773325,52.098649" id="Fill-36" fill="#FFBF1E"></path>
                            <path d="M11.9540679,59.6419464 C11.299428,61.091997 10.0989048,62.0988411 8.72290019,62.5263158 C8.15600102,61.1636045 8.13130754,59.5665415 8.78647276,58.1159484 C9.44111258,56.6664402 10.6416359,55.6590537 12.0176404,55.2315789 C12.585065,56.5948327 12.6092331,58.1913532 11.9540679,59.6419464" id="Fill-38" fill="#FFBF1E"></path>
                            <path d="M6.46277841,58.8502266 C7.90588417,59.5086255 8.90844585,60.7145462 9.33333333,62.0973423 C7.97714865,62.6675675 6.38773475,62.6918549 4.944629,62.033984 C3.50152324,61.375585 2.49896155,60.1696643 2.07407407,58.7868682 C3.43025876,58.216643 5.01967265,58.1923556 6.46277841,58.8502266" id="Fill-40" fill="#FFBF1E"></path>
                            <path d="M15.3567157,65.1111092 C14.9108456,66.7684717 13.7862493,68.0628318 12.3610991,68.7789474 C11.4856998,67.4491015 11.1606348,65.7667243 11.6065049,64.1093617 C12.0517914,62.4519992 13.1769713,61.1576391 14.6021215,60.4421053 C15.4775208,61.7719511 15.8020022,63.4531648 15.3567157,65.1111092" id="Fill-42" fill="#FFBF1E"></path>
                            <path d="M9.25097826,65.8523386 C10.6942183,66.3004044 11.8213538,67.4305391 12.4444444,68.8632941 C11.2864077,69.7424181 9.8218914,70.0684974 8.37865137,69.6216045 C6.93541134,69.1735387 5.80827583,68.0428175 5.18518519,66.610649 C6.34322194,65.731525 7.80723166,65.4048592 9.25097826,65.8523386" id="Fill-44" fill="#FFBF1E"></path>
                            <path d="M18.6488589,71.0264429 C18.5295933,72.6835461 17.8279216,74.1088353 16.8111473,75.0315789 C15.9414827,73.9080427 15.4537466,72.356412 15.5734763,70.6993089 C15.6922779,69.0416417 16.3944137,67.6174805 17.411188,66.6947368 C18.2808525,67.8182731 18.7681245,69.3693397 18.6488589,71.0264429" id="Fill-46" fill="#FFBF1E"></path>
                            <path d="M13.1053977,71.9292734 C14.5484088,72.0890656 15.7895555,73.0291661 16.5925926,74.3914412 C15.6147046,75.5566186 14.2635393,76.2100879 12.8205282,76.0496739 C11.3775172,75.8898817 10.1368616,74.9497813 9.33333333,73.5875061 C10.3117125,72.4223288 11.6623866,71.7688595 13.1053977,71.9292734" id="Fill-48" fill="#FFBF1E"></path>
                            <path d="M22.797009,74.8677299 C22.9162617,76.5248331 22.4290426,78.0758997 21.5594725,79.2 C20.5423447,78.2772564 19.8407492,76.8525312 19.7214965,75.194864 C19.6022438,73.5377608 20.0899269,71.9866942 20.959497,70.8631579 C21.9761608,71.7853375 22.6777563,73.2106267 22.797009,74.8677299" id="Fill-50" fill="#FFBF1E"></path>
                            <path d="M18.0057134,78.181905 C19.4487245,78.0214911 20.7993986,78.6749603 21.7777778,79.8401377 C20.9742495,81.2024129 19.7335939,82.1425133 18.2905829,82.3023055 C16.8470806,82.4627195 15.4964066,81.8092502 14.5185185,80.6440728 C15.3215557,79.2817976 16.5627024,78.3416972 18.0057134,78.181905" id="Fill-52" fill="#FFBF1E"></path>
                            <path d="M28.8381848,78.6988354 C29.283499,80.3567797 28.9589975,82.0379935 28.0835437,83.3684211 C26.6583051,82.6528872 25.5330552,81.3579454 25.0877411,79.7011646 C24.642427,78.0432203 24.9669285,76.3614248 25.8423822,75.0315789 C27.2676209,75.7471128 28.3922871,77.0414728 28.8381848,78.6988354" id="Fill-54" fill="#FFBF1E"></path>
                            <path d="M22.8974536,82.5260228 C24.3405929,82.0785434 25.805007,82.4052092 26.962963,83.2843332 C26.3399158,84.7165018 25.2128589,85.8472229 23.7697196,86.2952887 C22.3265803,86.7421816 20.8621662,86.4161023 19.7037037,85.5369784 C20.3272574,84.1042233 21.4543143,82.9740886 22.8974536,82.5260228" id="Fill-56" fill="#FFBF1E"></path>
                            <path d="M33.7322848,81.0428067 C34.3869562,82.4928573 34.362787,84.0893778 33.795335,85.4526316 C32.4192641,85.0251569 31.2192083,84.0177703 30.5640115,82.5682621 C29.9093401,81.117669 29.9335093,79.520606 30.5009613,78.1578947 C31.8770322,78.5853695 33.077088,79.5922135 33.7322848,81.0428067" id="Fill-58" fill="#FFBF1E"></path>
                            <path d="M29.8335179,85.9449708 C31.2766236,85.28709 32.8660375,85.3113777 34.2222222,85.8816115 C33.7973347,87.2639005 32.7947731,88.4703674 31.3516673,89.1282483 C29.9080217,89.7866571 28.3191476,89.7623694 26.962963,89.1921356 C27.3878504,87.8093186 28.3904121,86.6033797 29.8335179,85.9449708" id="Fill-60" fill="#FFBF1E"></path>
                            <path d="M38.4443807,5.91605022 C37.0010679,6.48023445 35.4765298,6.31137059 34.2222222,5.58726892 C34.7496666,4.16702317 35.8165309,2.98441697 37.2598437,2.42079189 C38.7026358,1.85660765 40.2276946,2.02547152 41.4814815,2.74957319 C40.9540371,4.16981893 39.8871728,5.35186598 38.4443807,5.91605022" id="Fill-62" fill="#FFBF1E"></path>
                            <g id="Group-66" transform="translate(5.509881, 3.304346)">
                                <mask id="mask-4" fill="white">
                                    <use xlink:href="#path-3"></use>
                                </mask>
                                <g id="Clip-65"></g>
                                <path d="M47.153037,94.6534941 C40.124,87.2593876 33.5911852,84.3444193 28.7580741,82.6021647 C28.292963,82.4345554 27.8605185,82.2785244 27.4674815,82.1324176 C11.0387407,76.0179861 -2.84217094e-14,59.8492019 -2.84217094e-14,41.8984662 C-2.84217094e-14,21.6987885 13.9626667,4.07775789 33.1997037,0 L33.3215556,0.651140086 C14.3754074,4.66714718 0.624814815,22.0136073 0.624814815,41.8984662 C0.624814815,59.5674639 11.4945185,75.4842828 27.6733333,81.5049854 C28.0653333,81.6510922 28.4957037,81.8060205 28.9587407,81.9736298 C33.8421481,83.7335275 42.5351111,86.6799226 49.6662963,94.1815416 L47.153037,94.6534941 Z" id="Fill-64" fill="#FFBF1E" mask="url(#mask-4)"></path>
                            </g>
                        </g>
                        <g id="Weath-Leave-Copy" transform="translate(80.411963, 48.978920) scale(-1, 1) translate(-80.411963, -48.978920) translate(52.823926, 0.000000)">
                            <path d="M31.9079183,10.9705621 C30.4649199,10.3121632 29.4624328,9.10624244 29.037037,7.72344632 C30.3931209,7.15374911 31.9824166,7.12893375 33.4259548,7.78733267 C34.8689533,8.4452036 35.8709006,9.65165229 36.2962963,11.0344484 C34.9402125,11.6041456 33.3509168,11.628961 31.9079183,10.9705621" id="Fill-1" fill="#FFBF1E"></path>
                            <path d="M31.6580398,4.41015289 C31.0028736,5.86031142 29.8028739,6.86777285 28.4268672,7.29473684 C27.8594418,5.93192419 27.8352737,4.33474248 28.4899145,2.88458395 C29.1450807,1.43442542 30.3450804,0.426963996 31.7210871,0 C32.2885125,1.36281265 32.313206,2.95999436 31.6580398,4.41015289" id="Fill-3" fill="#FFBF1E"></path>
                            <path d="M26.0085647,14.3896621 C24.5654254,13.9416129 23.437862,12.8115204 22.8148148,11.3794052 C23.9727708,10.4997276 25.4376914,10.173074 26.8808307,10.6211231 C28.3239701,11.0685858 29.4510269,12.1992648 30.0740741,13.63138 C28.9161181,14.5110576 27.451704,14.8371248 26.0085647,14.3896621" id="Fill-5" fill="#FFBF1E"></path>
                            <path d="M25.7268285,7.7955756 C25.2809584,9.45282254 24.156362,10.7470923 22.7312119,11.4631579 C21.8558125,10.1328231 21.5313311,8.45114503 21.9766176,6.79389809 C22.4219041,5.13665115 23.5470841,3.84238142 24.9722342,3.12631579 C25.8476336,4.45665056 26.1726985,6.13832866 25.7268285,7.7955756" id="Fill-7" fill="#FFBF1E"></path>
                            <path d="M21.1168245,17.6919298 C19.6738135,17.5321318 18.4331579,16.5919972 17.6296296,15.2296725 C18.6075177,14.0644528 19.9586829,13.4109598 21.401694,13.5713796 C22.8451962,13.7305558 24.0853606,14.6706904 24.8888889,16.0336368 C23.9110009,17.1988565 22.5598356,17.8517278 21.1168245,17.6919298" id="Fill-9" fill="#FFBF1E"></path>
                            <path d="M19.6858959,11.626736 C19.5666303,13.2839513 18.8649586,14.7087729 17.8481843,15.6315789 C16.9785198,14.5085307 16.4907837,12.9573592 16.6105134,11.2995798 C16.729779,9.6423645 17.4314507,8.21754291 18.448225,7.29473684 C19.3178896,8.41834912 19.8051616,9.96952069 19.6858959,11.626736" id="Fill-11" fill="#FFBF1E"></path>
                            <path d="M17.2535458,22.9024587 C15.8105348,23.0622393 14.4598607,22.409439 13.4814815,21.2443459 C14.2850098,19.8815475 15.5256653,18.9415151 16.9686764,18.7817344 C18.4121786,18.6219538 19.7628527,19.2753758 20.7407407,20.4404689 C19.9377036,21.8026456 18.6965569,22.742678 17.2535458,22.9024587" id="Fill-13" fill="#FFBF1E"></path>
                            <path d="M14.5007101,16.5101061 C14.6199801,18.1673214 14.1326904,19.718493 13.2629942,20.8421053 C12.246183,19.9192992 11.5440217,18.4944776 11.4252158,16.8372623 C11.3059458,15.1794829 11.7932356,13.6283114 12.6629317,12.5052632 C13.6797429,13.4275052 14.3814402,14.8528908 14.5007101,16.5101061" id="Fill-15" fill="#FFBF1E"></path>
                            <path d="M13.3990655,27.9370181 C11.9560269,28.3845086 10.491715,28.0584211 9.33333333,27.1786889 C9.95684353,25.7464848 11.0838218,24.6157356 12.5268604,24.1682451 C13.969899,23.7207546 15.4342109,24.046842 16.5925926,24.9265743 C15.9690824,26.3587784 14.8421042,27.4889411 13.3990655,27.9370181" id="Fill-17" fill="#FFBF1E"></path>
                            <path d="M10.1712729,22.425733 C10.617143,24.0830955 10.292078,25.764891 9.41667865,27.0947368 C7.99152851,26.379203 6.86634854,25.0848429 6.42106206,23.4274804 C5.97577559,21.7701178 6.30025695,20.0883223 7.17565631,18.7578947 C8.60080646,19.4740103 9.72598643,20.7683704 10.1712729,22.425733" id="Fill-19" fill="#FFBF1E"></path>
                            <path d="M11.6476372,33.8969701 C10.2046388,34.5553382 8.61534309,34.530524 7.25925926,33.9603255 C7.68465498,32.577594 8.68660227,31.3717296 10.1296007,30.7133615 C11.573139,30.0555213 13.1624347,30.0798075 14.5185185,30.6500061 C14.0931228,32.0327376 13.0906357,33.2386019 11.6476372,33.8969701" id="Fill-21" fill="#FFBF1E"></path>
                            <path d="M6.7690828,29.9793208 C7.42424802,31.4294793 7.39955454,33.026661 6.83265537,34.3894737 C5.45665079,33.9625097 4.25612752,32.9550483 3.6014877,31.5048897 C2.94632248,30.0541887 2.97049057,28.4575495 3.53791513,27.0947368 C4.9139197,27.5217008 6.11391758,28.5291623 6.7690828,29.9793208" id="Fill-23" fill="#FFBF1E"></path>
                            <path d="M9.27343043,40.6489404 C8.03594906,41.6237765 6.54810426,41.8916835 5.18518519,41.5304411 C5.34953418,39.9656333 6.08270477,38.4837904 7.31967415,37.5089543 C8.55664354,36.5341183 10.0450003,36.2662112 11.4074074,36.6274536 C11.2435704,38.1922614 10.5103998,39.6741044 9.27343043,40.6489404" id="Fill-25" fill="#FFBF1E"></path>
                            <path d="M5.19198709,36.5338799 C6.16208207,37.7774091 6.42868619,39.2725253 6.06920064,40.6421053 C4.51200326,40.4769531 3.03736715,39.7401993 2.06727217,38.4971846 C1.09717719,37.2541699 0.83057307,35.7585392 1.19005862,34.3894737 C2.747256,34.5541114 4.22189211,35.2908652 5.19198709,36.5338799" id="Fill-27" fill="#FFBF1E"></path>
                            <path d="M8.93658511,47.2503486 C7.90883337,48.4891804 6.53816925,49.0619544 5.19312503,48.9692648 C5.11675805,47.3471973 5.5912187,45.6942333 6.61897045,44.4548073 C7.6462295,43.2159756 9.0173863,42.6437957 10.3624305,42.7358911 C10.4387975,44.3579586 9.96433685,46.0109226 8.93658511,47.2503486" id="Fill-29" fill="#FFBF1E"></path>
                            <g id="Group-33" transform="translate(0.000000, 42.782484)">
                                <mask id="mask-6" fill="white">
                                    <use xlink:href="#path-5"></use>
                                </mask>
                                <g id="Clip-32"></g>
                                <path d="M3.948,1.51631624 C5.02962963,2.60323203 5.52896296,4.05280045 5.44859259,5.47527414 C4.03303704,5.5560373 2.59,5.05426361 1.50837037,3.96786888 C0.427259259,2.88095309 -0.0720740741,1.43138467 0.0082962963,0.00838992828 C1.42385185,-0.0723732296 2.86637037,0.429921507 3.948,1.51631624" id="Fill-31" fill="#FFBF1E" mask="url(#mask-6)"></path>
                            </g>
                            <path d="M10.3771723,53.0868347 C9.40707729,54.3297472 7.93244119,55.0664403 6.37524381,55.2315789 C6.01575826,53.8621117 6.28236237,52.366604 7.25245735,51.1236916 C8.22255234,49.8807791 9.69718844,49.144086 11.2543858,48.9789474 C11.6138714,50.3484146 11.3472673,51.8439223 10.3771723,53.0868347" id="Fill-34" fill="#FFBF1E"></path>
                            <path d="M4.08773325,52.098649 C5.32521462,53.0734565 6.05787323,54.5552561 6.22222222,56.120018 C4.85930314,56.4812499 3.37145835,56.2127745 2.13397698,55.2385431 C0.897007598,54.2637356 0.163837004,52.7819361 0,51.2171741 C1.36240709,50.8553661 2.85076387,51.1238415 4.08773325,52.098649" id="Fill-36" fill="#FFBF1E"></path>
                            <path d="M11.9540679,59.6419464 C11.299428,61.091997 10.0989048,62.0988411 8.72290019,62.5263158 C8.15600102,61.1636045 8.13130754,59.5665415 8.78647276,58.1159484 C9.44111258,56.6664402 10.6416359,55.6590537 12.0176404,55.2315789 C12.585065,56.5948327 12.6092331,58.1913532 11.9540679,59.6419464" id="Fill-38" fill="#FFBF1E"></path>
                            <path d="M6.46277841,58.8502266 C7.90588417,59.5086255 8.90844585,60.7145462 9.33333333,62.0973423 C7.97714865,62.6675675 6.38773475,62.6918549 4.944629,62.033984 C3.50152324,61.375585 2.49896155,60.1696643 2.07407407,58.7868682 C3.43025876,58.216643 5.01967265,58.1923556 6.46277841,58.8502266" id="Fill-40" fill="#FFBF1E"></path>
                            <path d="M15.3567157,65.1111092 C14.9108456,66.7684717 13.7862493,68.0628318 12.3610991,68.7789474 C11.4856998,67.4491015 11.1606348,65.7667243 11.6065049,64.1093617 C12.0517914,62.4519992 13.1769713,61.1576391 14.6021215,60.4421053 C15.4775208,61.7719511 15.8020022,63.4531648 15.3567157,65.1111092" id="Fill-42" fill="#FFBF1E"></path>
                            <path d="M9.25097826,65.8523386 C10.6942183,66.3004044 11.8213538,67.4305391 12.4444444,68.8632941 C11.2864077,69.7424181 9.8218914,70.0684974 8.37865137,69.6216045 C6.93541134,69.1735387 5.80827583,68.0428175 5.18518519,66.610649 C6.34322194,65.731525 7.80723166,65.4048592 9.25097826,65.8523386" id="Fill-44" fill="#FFBF1E"></path>
                            <path d="M18.6488589,71.0264429 C18.5295933,72.6835461 17.8279216,74.1088353 16.8111473,75.0315789 C15.9414827,73.9080427 15.4537466,72.356412 15.5734763,70.6993089 C15.6922779,69.0416417 16.3944137,67.6174805 17.411188,66.6947368 C18.2808525,67.8182731 18.7681245,69.3693397 18.6488589,71.0264429" id="Fill-46" fill="#FFBF1E"></path>
                            <path d="M13.1053977,71.9292734 C14.5484088,72.0890656 15.7895555,73.0291661 16.5925926,74.3914412 C15.6147046,75.5566186 14.2635393,76.2100879 12.8205282,76.0496739 C11.3775172,75.8898817 10.1368616,74.9497813 9.33333333,73.5875061 C10.3117125,72.4223288 11.6623866,71.7688595 13.1053977,71.9292734" id="Fill-48" fill="#FFBF1E"></path>
                            <path d="M22.797009,74.8677299 C22.9162617,76.5248331 22.4290426,78.0758997 21.5594725,79.2 C20.5423447,78.2772564 19.8407492,76.8525312 19.7214965,75.194864 C19.6022438,73.5377608 20.0899269,71.9866942 20.959497,70.8631579 C21.9761608,71.7853375 22.6777563,73.2106267 22.797009,74.8677299" id="Fill-50" fill="#FFBF1E"></path>
                            <path d="M18.0057134,78.181905 C19.4487245,78.0214911 20.7993986,78.6749603 21.7777778,79.8401377 C20.9742495,81.2024129 19.7335939,82.1425133 18.2905829,82.3023055 C16.8470806,82.4627195 15.4964066,81.8092502 14.5185185,80.6440728 C15.3215557,79.2817976 16.5627024,78.3416972 18.0057134,78.181905" id="Fill-52" fill="#FFBF1E"></path>
                            <path d="M28.8381848,78.6988354 C29.283499,80.3567797 28.9589975,82.0379935 28.0835437,83.3684211 C26.6583051,82.6528872 25.5330552,81.3579454 25.0877411,79.7011646 C24.642427,78.0432203 24.9669285,76.3614248 25.8423822,75.0315789 C27.2676209,75.7471128 28.3922871,77.0414728 28.8381848,78.6988354" id="Fill-54" fill="#FFBF1E"></path>
                            <path d="M22.8974536,82.5260228 C24.3405929,82.0785434 25.805007,82.4052092 26.962963,83.2843332 C26.3399158,84.7165018 25.2128589,85.8472229 23.7697196,86.2952887 C22.3265803,86.7421816 20.8621662,86.4161023 19.7037037,85.5369784 C20.3272574,84.1042233 21.4543143,82.9740886 22.8974536,82.5260228" id="Fill-56" fill="#FFBF1E"></path>
                            <path d="M33.7322848,81.0428067 C34.3869562,82.4928573 34.362787,84.0893778 33.795335,85.4526316 C32.4192641,85.0251569 31.2192083,84.0177703 30.5640115,82.5682621 C29.9093401,81.117669 29.9335093,79.520606 30.5009613,78.1578947 C31.8770322,78.5853695 33.077088,79.5922135 33.7322848,81.0428067" id="Fill-58" fill="#FFBF1E"></path>
                            <path d="M29.8335179,85.9449708 C31.2766236,85.28709 32.8660375,85.3113777 34.2222222,85.8816115 C33.7973347,87.2639005 32.7947731,88.4703674 31.3516673,89.1282483 C29.9080217,89.7866571 28.3191476,89.7623694 26.962963,89.1921356 C27.3878504,87.8093186 28.3904121,86.6033797 29.8335179,85.9449708" id="Fill-60" fill="#FFBF1E"></path>
                            <path d="M38.4443807,5.91605022 C37.0010679,6.48023445 35.4765298,6.31137059 34.2222222,5.58726892 C34.7496666,4.16702317 35.8165309,2.98441697 37.2598437,2.42079189 C38.7026358,1.85660765 40.2276946,2.02547152 41.4814815,2.74957319 C40.9540371,4.16981893 39.8871728,5.35186598 38.4443807,5.91605022" id="Fill-62" fill="#FFBF1E"></path>
                            <g id="Group-66" transform="translate(5.509881, 3.304346)">
                                <mask id="mask-8" fill="white">
                                    <use xlink:href="#path-7"></use>
                                </mask>
                                <g id="Clip-65"></g>
                                <path d="M47.153037,94.6534941 C40.124,87.2593876 33.5911852,84.3444193 28.7580741,82.6021647 C28.292963,82.4345554 27.8605185,82.2785244 27.4674815,82.1324176 C11.0387407,76.0179861 0,59.8492019 0,41.8984662 C0,21.6987885 13.9626667,4.07775789 33.1997037,0 L33.3215556,0.651140086 C14.3754074,4.66714718 0.624814815,22.0136073 0.624814815,41.8984662 C0.624814815,59.5674639 11.4945185,75.4842828 27.6733333,81.5049854 C28.0653333,81.6510922 28.4957037,81.8060205 28.9587407,81.9736298 C33.8421481,83.7335275 42.5351111,86.6799226 49.6662963,94.1815416 L47.153037,94.6534941 Z" id="Fill-64" fill="#FFBF1E" mask="url(#mask-8)"></path>
                            </g>
                        </g>
                    </g>
                    <text id="72" font-size="35" font-weight="900" fill="#FFB600">
                        <tspan x="89.5" y="108.523115">100</tspan>
                    </text>
                    <g id="star-(2)" transform="translate(185.843995, 62.258038) rotate(-45.000000) translate(-185.843995, -62.258038) translate(177.350544, 54.128587)" fill-rule="nonzero">
                        <path d="M15.0198162,4.8759673 L10.5826108,4.46443235 L8.82001767,0.371544078 C8.696597,0.0849559688 8.29027093,0.0849559688 8.16688343,0.371544078 L6.40429026,4.46439917 L1.96708485,4.8759673 C1.65637663,4.90476545 1.53083259,5.29121814 1.76523234,5.4971515 L5.1131176,8.43821303 L4.13334989,12.7854408 C4.06473861,13.0898453 4.39349545,13.3286576 4.66176953,13.169372 L8.49345055,10.8941849 L12.3251316,13.169372 C12.5934388,13.3286908 12.9221293,13.0898453 12.8535512,12.7854408 L11.8737503,8.43821303 L15.2216688,5.4971515 C15.4560685,5.29121814 15.3304913,4.90476545 15.0198162,4.8759673 Z" id="Path" fill="#FFDC64"></path>
                        <g id="Group" transform="translate(0.000000, 0.000000)" fill="#FFF082">
                            <path d="M3.95734272,0.23063881 C4.1835476,0.544830682 4.82201733,1.89416367 5.18703729,2.68053915 C5.24443454,2.80415889 5.08932926,2.91583469 4.99029412,2.82217432 C4.36035103,2.22657005 3.28324025,1.19302145 3.05703537,0.878796404 C2.87804222,0.630196647 2.93447732,0.283557082 3.18311025,0.10456393 C3.43171001,-0.0744292216 3.77834957,-0.0179609464 3.95734272,0.23063881 Z" id="Path"></path>
                            <path d="M13.0295584,0.23063881 C12.8033535,0.544830682 12.1648838,1.89416367 11.7998638,2.68053915 C11.7424666,2.80415889 11.8975718,2.91583469 11.996607,2.82217432 C12.6265501,2.22657005 13.7036277,1.19298828 13.9298657,0.878796404 C14.1088589,0.630196647 14.0524238,0.283557082 13.8037909,0.10456393 C13.5551911,-0.0744292216 13.2085515,-0.0179609464 13.0295584,0.23063881 Z" id="Path"></path>
                            <path d="M16.6040798,9.4442574 C16.2360075,9.32422084 14.7564525,9.12591832 13.8963895,9.0170958 C13.7611908,8.99997615 13.7019356,9.18168987 13.8212091,9.24758058 C14.5800803,9.66677956 15.8920222,10.3789036 16.2600945,10.4989401 C16.5513274,10.5939276 16.8644245,10.434841 16.9594119,10.1435748 C17.0543994,9.8523087 16.8953128,9.53924486 16.6040798,9.4442574 Z" id="Path"></path>
                            <path d="M0.382821277,9.4442574 C0.750893572,9.32422084 2.23044864,9.12591832 3.09051157,9.0170958 C3.22571029,8.99997615 3.28496548,9.18168987 3.16569201,9.24758058 C2.40682077,9.66677956 1.09487893,10.3789036 0.726806634,10.4989401 C0.435573661,10.5939276 0.12247665,10.434841 0.0274891812,10.1435748 C-0.0674982876,9.8523087 0.0915883044,9.53924486 0.382821277,9.4442574 Z" id="Path"></path>
                            <path d="M7.95577437,15.7042401 C7.95577437,15.3170907 8.22600592,13.8489819 8.38923971,12.9975452 C8.41488599,12.8637067 8.60602215,12.8637067 8.63166843,12.9975452 C8.79490222,13.8489819 9.06513378,15.3170907 9.06513378,15.7042401 C9.06513378,16.0105689 8.81679944,16.2589033 8.51047066,16.2589033 C8.2041087,16.2589033 7.95577437,16.0105689 7.95577437,15.7042401 Z" id="Path"></path>
                        </g>
                        <path d="M9.46094254,1.85989121 L8.81998449,0.371544078 C8.69656382,0.0849559688 8.29023775,0.0849559688 8.16685026,0.371544078 L6.40425708,4.46439917 L1.96708485,4.8759673 C1.65637663,4.90476545 1.53083259,5.29121814 1.76523234,5.4971515 L5.1131176,8.43821303 L4.13334989,12.7854408 C4.06473861,13.0898453 4.39349545,13.3286576 4.66176953,13.169372 L5.17174242,12.86656 C6.00778476,7.4546299 8.3581523,3.48187772 9.46094254,1.85989121 Z" id="Path" fill="#FFC850"></path>
                    </g>
                    <g id="star-(2)-copy" transform="translate(85.877300, 8.279325) rotate(-45.000000) translate(-85.877300, -8.279325) translate(79.883913, 2.563979)" fill-rule="nonzero">
                        <path d="M11.7039608,4.12944376 L7.8214061,3.76935068 L6.27913706,0.188073446 C6.17114398,-0.0626911488 5.81560867,-0.0626911488 5.70764461,0.188073446 L4.16537558,3.76932165 L0.282820853,4.12944376 C0.0109511575,4.15464215 -0.0988998761,4.49278825 0.1061999,4.67297994 L3.0355995,7.24640878 L2.17830276,11.0502331 C2.11826789,11.316587 2.40593013,11.5255478 2.64066994,11.3861729 L5.99339084,9.39538414 L9.34611173,11.3861729 C9.58088058,11.5255768 9.86848475,11.316587 9.80847891,11.0502331 L8.95115314,7.24640878 L11.8805818,4.67297994 C12.0856816,4.49278825 11.9758015,4.15464215 11.7039608,4.12944376 Z" id="Path" fill="#FFDC64"></path>
                        <path d="M6.83994633,1.49037719 L6.27910803,0.188073446 C6.17111495,-0.0626911488 5.81557964,-0.0626911488 5.70761558,0.188073446 L4.16534655,3.76932165 L0.282820853,4.12944376 C0.0109511575,4.15464215 -0.0988998761,4.49278825 0.1061999,4.67297994 L3.0355995,7.24640878 L2.17830276,11.0502331 C2.11826789,11.316587 2.40593013,11.5255478 2.64066994,11.3861729 L3.08689622,11.1212124 C3.81843327,6.38577354 5.87500487,2.90961539 6.83994633,1.49037719 Z" id="Path" fill="#FFC850"></path>
                    </g>
                    <rect id="Rectangle" fill="#015F81" transform="translate(6.892489, 22.781081) rotate(-37.000000) translate(-6.892489, -22.781081) " x="-0.60751114" y="21.2810809" width="15" height="3" rx="1.5"></rect>
                    <rect id="Rectangle-Copy-7" fill="#015F81" transform="translate(183.648781, 114.308306) rotate(-37.000000) translate(-183.648781, -114.308306) " x="176.148781" y="112.808306" width="15" height="3" rx="1.5"></rect>
                    <rect id="Rectangle-Copy-8" fill="#015F81" transform="translate(217.324671, 28.492647) rotate(-37.000000) translate(-217.324671, -28.492647) " x="209.824671" y="26.9926469" width="15" height="3" rx="1.5"></rect>
                    <rect id="Rectangle-Copy-9" fill="#015F81" transform="translate(71.087845, 48.492647) rotate(31.000000) translate(-71.087845, -48.492647) " x="63.5878446" y="46.9926469" width="15" height="3" rx="1.5"></rect>
                    <rect id="Rectangle-Copy-19" fill="#FFFFFF" transform="translate(128.713684, 5.999391) rotate(67.000000) translate(-128.713684, -5.999391) " x="123.713684" y="4.99939147" width="10" height="2" rx="1"></rect>
                    <rect id="Rectangle" fill="#FFFFFF" transform="translate(40.366955, 35.229473) rotate(42.000000) translate(-40.366955, -35.229473) " x="37.3669552" y="32.2294732" width="6" height="6"></rect>
                    <rect id="Rectangle-Copy-20" fill="#FFFFFF" transform="translate(15.824671, 87.992647) rotate(70.000000) translate(-15.824671, -87.992647) " x="12.8246709" y="84.9926469" width="6" height="6"></rect>
                    <rect id="Rectangle-Copy-22" fill="#015F81" transform="translate(152.587845, 39.992647) rotate(70.000000) translate(-152.587845, -39.992647) " x="149.587845" y="36.9926469" width="6" height="6"></rect>
                    <rect id="Rectangle-Copy-10" fill="#015F81" transform="translate(196.324671, 163.492647) rotate(31.000000) translate(-196.324671, -163.492647) " x="188.824671" y="161.992647" width="15" height="3" rx="1.5"></rect>
                    <rect id="Rectangle-Copy-21" fill="#FFFFFF" transform="translate(229.018034, 112.710670) rotate(31.000000) translate(-229.018034, -112.710670) " x="224.018034" y="111.71067" width="10" height="2" rx="1"></rect>
                    <rect id="Rectangle-Copy-21" fill="#FFFFFF" transform="translate(28.374580, 158.344110) rotate(31.000000) translate(-28.374580, -158.344110) " x="23.3745799" y="157.34411" width="10" height="2" rx="1"></rect>
                    <rect id="Rectangle-Copy-23" fill="#FFFFFF" transform="translate(166.587845, 29.115415) rotate(138.000000) translate(-166.587845, -29.115415) " x="161.587845" y="28.1154149" width="10" height="2" rx="1"></rect>
                </g>
            </g>
        </g>
    </g>
</svg>