<?xml version="1.0" encoding="UTF-8"?>
<svg width="364px" height="155px" viewBox="0 0 364 155" version="1.1" xmlns="http://www.w3.org/2000/svg" xmlns:xlink="http://www.w3.org/1999/xlink">
    <title>Charachter add</title>
    <defs>
        <path d="M10,0 L354,0 C359.522847,-1.01453063e-15 364,4.4771525 364,10 L364,155 L364,155 L0,155 L0,10 C-6.76353751e-16,4.4771525 4.4771525,-7.86725357e-15 10,0 Z" id="path-1"></path>
        <polygon id="path-3" points="0 0 469 0 469 518 0 518"></polygon>
        <polygon id="path-5" points="0 0.803313513 47.5448 0.803313513 47.5448 95.2181879 0 95.2181879"></polygon>
        <polygon id="path-7" points="0 0.2962 13.2380121 0.2962 13.2380121 28.6682 0 28.6682"></polygon>
        <polygon id="path-9" points="0 0 29.5199322 0 29.5199322 13.5313 0 13.5313"></polygon>
    </defs>
    <g id="Components" stroke="none" stroke-width="1" fill="none" fill-rule="evenodd">
        <g id="Charachter-add">
            <mask id="mask-2" fill="white">
                <use xlink:href="#path-1"></use>
            </mask>
            <use id="Mask" fill="#01ABE8" xlink:href="#path-1"></use>
            <g id="Group-3" mask="url(#mask-2)">
                <g transform="translate(-234.000000, -174.000000)">
                    <mask id="mask-4" fill="white">
                        <use xlink:href="#path-3"></use>
                    </mask>
                    <g id="Clip-2" stroke="none" fill="none"></g>
                    <path d="M158.607132,439.22848 C160.567391,437.516754 172.667829,441.270283 174.742022,436.380472 C168.986865,436.339578 157.765769,435.831318 158.607132,439.22848 M191.829289,362.349791 C184.61051,366.845262 174.742022,373.733059 171.896579,379.434917 C178.864117,374.063136 187.11415,369.973689 191.829289,362.349791 M317.128119,312.046667 C321.556961,313.626946 321.510218,319.691012 323.76846,323.435778 C319.097142,322.258601 312.190953,316.977372 317.128119,312.046667 M254.475782,357.606032 C257.379654,356.691748 263.350994,357.281797 263.020876,362.352712 C259.550254,364.645723 255.027927,361.24564 254.475782,357.606032 M404.451675,140.263587 L404.451675,136.466243 C399.16102,134.754517 399.999462,135.432197 394.960048,138.361994 C391.404704,135.689248 388.857244,137.731051 385.46842,135.513986 C383.867493,139.612197 381.16812,142.603335 374.080805,141.212923 C370.770859,149.073425 361.691149,154.845388 361.737891,164.940481 C361.764184,170.250921 367.297315,175.511703 363.639722,180.124015 C347.925514,163.611411 310.727332,181.032457 291.495758,175.380256 C293.932206,168.007567 297.563506,161.82958 300.037931,154.497785 C303.56406,153.560133 307.791326,149.450239 304.785205,145.007346 C292.039139,149.345081 292.363414,166.757364 279.158688,170.636497 C274.019946,164.884982 268.270631,163.260887 262.0685,157.348714 C261.37905,143.412462 254.729944,136.577243 249.728508,127.92514 C247.663078,124.349795 248.446014,119.319775 243.088167,119.381116 C242.55355,120.751081 241.604096,121.700417 240.239802,122.229124 C239.491924,127.717747 242.883669,129.078949 242.138712,134.570492 C232.369551,139.892616 215.87825,133.109975 205.118736,127.92514 C203.964783,133.825629 207.268886,135.262777 207.014724,140.263587 C197.105336,145.29945 190.862305,138.002707 181.388206,142.162259 C176.161822,138.849807 174.178192,132.283323 167.149305,130.770227 C160.821553,125.395525 159.921762,114.590621 151.963869,110.842934 C151.730157,117.327629 154.894033,118.049125 157.660599,122.229124 C160.809867,126.990409 163.845202,135.24233 167.149305,139.317172 C171.464212,144.630533 177.003186,146.426969 176.643853,151.652698 C176.153058,158.823836 167.783248,159.20065 161.455497,163.04473 C155.527977,189.325272 125.533967,181.231087 104.49989,174.433841 C116.778532,180.822142 132.828702,183.439389 143.421697,191.516047 C136.392809,197.139037 129.787525,203.19434 125.387897,211.446261 C119.805102,211.013948 118.391145,206.41332 111.146074,207.651838 C110.313475,212.909699 116.267287,211.38784 117.789336,214.294269 C103.062561,217.685589 97.0327921,204.830119 80.7722817,207.651838 C80.5444126,206.296478 79.2064115,206.04819 78.873372,204.800909 C78.2481925,201.330721 80.9241945,201.161301 80.7722817,198.161399 C76.5800733,195.009604 73.2993415,190.505369 74.1319404,184.873616 C67.4068784,181.783162 61.6926208,177.690794 60.8366507,168.734904 C56.1887039,167.884883 58.2745832,173.767845 53.2468544,172.532248 C50.6877084,164.639615 45.9871764,169.935449 39.0079526,166.836232 C37.8948994,168.255855 37.8247858,170.721207 36.1625094,171.585833 C25.9083967,169.249006 25.8558115,177.097824 20.0217764,179.1776 C13.5742475,176.767747 10.5184634,171.559544 2.9374314,174.433841 C3.20035737,179.54565 11.8769143,176.250724 13.3755923,180.124015 C9.90789092,188.992274 7.40425144,198.833237 2.9374314,206.699581 C6.87255671,209.191223 9.17169821,214.77624 6.73525092,220.9367 C12.6189498,226.355218 18.5815264,232.670493 20.9741527,238.968242 C24.4418541,239.596264 24.6142167,236.914755 27.6144941,237.06957 C30.5943217,239.16103 33.5069571,241.30799 34.2635996,245.616515 C43.5069081,240.641994 53.798999,241.123965 63.6850153,238.968242 C65.2654925,237.703434 64.0034479,233.59354 65.5839251,232.32289 C68.5140889,232.092128 70.9505362,231.364791 73.1795641,230.427139 C75.6043258,229.217831 72.2973014,225.779774 74.1319404,225.68338 C87.1409329,227.444763 107.596573,225.537328 117.789336,234.221562 C120.7604,244.433496 122.922236,254.5578 117.789336,264.594472 C116.141667,265.771648 111.487877,263.870055 107.348254,264.594472 C104.923492,263.85545 105.738563,259.877002 102.603901,259.850713 C86.0074299,262.871062 74.5759931,271.05872 69.3788232,285.476943 C70.3691777,290.4982 71.2368334,295.647983 71.2806544,301.609813 C75.8059024,311.000937 85.9373163,314.792438 92.1628189,322.489363 C94.0909427,318.648203 101.242529,319.26162 104.49989,321.540027 C115.177605,316.080614 125.653744,310.419651 129.182795,297.81539 C143.404168,297.829995 143.86575,311.60267 152.913324,316.793347 C150.327886,330.974966 145.986686,343.403965 142.472242,356.656696 C149.463151,351.04539 152.074883,339.425517 153.859858,326.283786 C157.803747,325.167951 160.508963,322.810676 164.30094,321.540027 C166.699409,323.891459 170.722176,324.610033 170.950046,329.134715 C171.028923,332.695455 167.470659,332.613666 167.149305,335.774225 C178.183431,334.559075 195.930934,333.525029 194.680575,350.963601 C200.123142,352.611064 198.256368,346.947179 202.270371,347.163336 C211.282889,353.732741 213.269441,380.728935 207.9671,389.874692 C202.282057,382.802869 203.044542,371.603626 191.829289,372.792487 C180.713363,373.972584 178.615798,389.985692 186.135481,399.365131 C195.846213,402.589953 204.505242,408.776702 209.86601,397.46938 C219.903939,406.308429 213.573266,427.780949 204.169281,433.532464 C200.283819,434.394169 196.488921,435.346426 195.63003,439.22848 C196.369144,439.438795 196.731397,440.02008 196.573642,441.124231 C199.982915,443.09885 206.842361,441.620807 211.759077,442.076488 C214.350358,446.764748 218.066379,450.328409 218.408183,457.260022 C215.758473,460.327108 207.707096,462.985249 209.86601,467.699797 C212.360885,462.859644 222.696797,461.451706 227.89981,464.851789 C228.273749,468.278162 229.129719,471.219643 229.79872,474.342228 C236.643559,476.88937 242.065677,483.023541 250.683806,480.98758 C253.13486,483.914456 251.9663,490.460493 255.428159,492.379612 C260.92039,492.811925 259.240585,486.070179 264.919786,486.683596 C267.137128,489.528683 263.958646,497.771841 269.66706,497.123371 C273.494094,495.890695 271.770468,489.108054 274.414335,486.683596 C282.345935,484.595057 286.97051,486.850095 294.344123,486.683596 C295.457176,488.100298 295.521447,490.56565 297.192488,491.430276 C297.759239,489.738998 294.408394,487.48688 297.192488,486.683596 C301.171434,486.817964 301.428517,490.673728 306.684115,489.531604 C306.596473,485.471367 304.782284,482.579544 306.684115,479.088908 C324.913649,478.01981 326.66941,460.473159 336.111374,450.61467 C347.726859,448.502763 355.477332,455.288324 362.687346,454.417856 C359.321894,452.402343 353.923147,452.42279 352.246264,448.72184 C354.244501,446.192225 359.190431,445.146495 356.990617,441.124231 C350.946241,440.776628 349.067781,444.594419 345.603001,446.820247 C342.585195,444.778445 336.526212,445.774517 335.16484,442.076488 C334.075158,434.975455 338.355009,433.249124 340.858648,429.73512 C340.116613,425.102361 336.911837,422.923269 337.057907,417.402515 C337.712301,413.619777 343.996231,415.477554 343.704091,410.754242 C343.452851,406.895557 337.50196,408.729966 335.16484,406.959819 C333.961223,400.016522 335.655635,399.300869 336.111374,392.7227 C329.69598,390.908738 323.999251,388.382044 324.717915,379.437839 C317.265425,378.351214 310.739018,376.33278 311.434311,367.099392 C309.710685,364.707065 305.197123,365.107246 303.838672,362.352712 C304.931275,362.046003 307.104797,358.213607 304.785205,357.606032 C302.670112,363.357547 291.732392,359.101601 288.650315,356.656696 C284.940138,357.378191 284.957666,361.824004 280.105221,361.400455 C279.696225,359.598177 278.063163,359.019812 278.206312,356.656696 C284.799911,352.17583 297.800139,354.100791 304.785205,350.014265 C304.720935,339.840304 299.926918,329.786105 305.73466,319.644276 C306.687037,319.647197 306.862321,318.876044 307.63357,318.69494 C309.167305,320.321956 311.603752,321.049293 315.226288,320.593612 C323.531827,332.40043 338.097925,332.666245 349.400821,340.520905 C343.324309,329.479397 317.42318,330.122024 320.925938,306.356493 C314.717964,304.898897 316.012144,314.926806 311.434311,312.046667 C313.566933,304.373111 321.884157,302.889226 325.670291,296.866054 C348.603278,290.220702 363.502417,311.132383 385.46842,303.508485 C391.87505,277.300969 344.504555,282.716566 342.754636,263.645136 C341.673719,251.841238 352.313456,255.475004 359.841903,252.258946 C357.536919,244.7256 346.274923,250.561825 342.754636,245.616515 C342.333955,237.282805 350.432075,237.472673 355.094628,234.221562 C353.555051,224.967727 360.969563,224.292968 364.589177,218.085771 C362.290036,213.11125 353.502466,214.618504 352.246264,208.601174 C357.41422,201.088275 364.837496,185.028431 376.926248,193.411798 C382.360051,189.03901 386.096521,193.554929 390.215695,197.209142 C393.601597,192.982406 397.338067,195.190708 402.558608,196.259806 C408.868831,188.063385 424.153594,181.800689 418.690577,167.788489 C419.00901,163.991145 422.619859,163.491648 422.491899,159.241544 C415.54423,153.852237 414.737923,142.317074 404.451675,140.263587 M309.53248,518 C307.61312,509.797737 304.680035,502.603231 300.040852,497.12045 C301.87257,505.413265 305.121166,512.283537 309.53248,518 M341.805182,487.632932 C342.027208,493.028082 351.404901,493.527578 354.145174,493.328948 C352.491661,488.970766 346.730661,488.719557 341.805182,487.632932 M13.3755923,473.395813 C9.73260694,466.277254 0.874923265,471.856428 0.089066764,477.193157 C-0.895444911,483.864798 6.60378794,485.623261 6.73525092,491.430276 C19.2709767,495.522645 18.2660153,480.152164 23.819596,474.342228 C23.3258794,472.943053 22.4144027,471.952822 21.9177648,470.547805 C17.430495,469.858441 15.6805766,471.903165 13.3755923,473.395813 M156.711144,446.820247 C163.401149,448.038318 170.409587,448.940918 177.590387,449.668255 C174.733258,445.237047 162.299781,445.365572 156.711144,446.820247 M348.451366,408.858491 C353.186954,415.746289 360.694952,410.999609 371.229519,412.652914 C368.550595,406.518743 355.787,407.403817 348.451366,408.858491 M132.980615,410.757163 C128.914026,410.170036 129.106839,413.844696 125.382054,413.60225 C120.923998,412.054102 120.552981,406.413586 118.741713,402.213139 C114.870858,401.50917 115.469745,405.271462 111.146074,404.114732 C108.318159,402.823635 107.205106,399.826655 105.452266,397.46938 C96.7494163,399.204475 94.8154498,394.183217 90.2609877,391.773364 C88.5987114,393.271855 88.2978072,396.131547 85.5166347,396.520044 C76.4427675,392.734385 75.3764566,404.660966 65.5839251,400.314467 C62.4521847,411.14274 54.0852961,417.265227 41.8533959,416.450258 C41.5174349,422.166722 48.2658681,420.790915 49.4490349,424.994282 C51.0996257,433.287097 46.4312291,435.261716 45.648294,441.127152 C48.8150912,446.440513 51.1522109,454.242594 52.2944782,463.905374 C57.2053509,463.741796 58.0730066,467.620929 59.8901172,470.547805 C64.94706,469.919783 68.1985777,471.099881 69.3788232,474.345149 C70.4188415,479.494932 67.4653064,480.654582 67.4828348,484.784924 C71.9730261,482.629201 75.4903912,479.500774 81.724658,479.091829 C85.9110237,482.17352 88.6834319,486.683596 97.8566268,484.784924 C98.3737145,481.822996 100.11779,480.084981 102.603901,479.091829 C105.496087,480.306979 105.142597,484.776161 109.247164,484.784924 C112.399354,482.897936 107.692979,474.015072 113.994438,473.395813 C117.976306,473.214709 116.927524,478.054862 121.587156,477.193157 C122.627174,472.846659 122.627174,471.099881 121.587156,466.753382 C127.827266,462.900539 129.209088,471.435799 132.980615,469.60139 C132.960165,465.50318 128.247947,466.101992 128.23334,462.006702 C132.559933,456.158792 126.822304,444.985838 132.980615,440.177816 C137.196194,438.065909 150.891716,443.075482 156.711144,438.279144 C137.643168,443.510716 122.524925,426.644666 132.980615,410.757163 M458.558918,250.360274 C461.170649,253.754515 468.973707,252.285235 469,247.512266 C466.841086,242.57864 458.427455,244.956361 458.558918,250.360274 M92.1628189,172.532248 C86.7553082,171.29373 82.3060166,169.100033 76.9773836,167.785568 C77.2081742,173.580899 88.4000562,173.423163 92.1628189,172.532248 M444.320016,69.0838345 C444.527435,65.6107252 445.625882,65.4413053 444.320016,62.4384825 C439.055654,62.4326404 436.338752,57.3646467 431.030569,55.7931305 C425.91812,54.280035 419.40632,56.6606775 415.845134,51.9987075 C414.136115,55.6412367 410.101662,56.5847307 405.404051,54.8467155 C404.1274,62.74227 394.407903,62.2018787 394.960048,71.9289215 C393.309457,71.8558956 392.012356,72.1421569 391.16515,72.8782575 C390.45525,75.7992913 393.768117,74.7039036 393.064059,77.6220164 C392.228539,80.2684731 388.354763,79.8770545 388.319706,83.3180324 C393.960929,85.266362 394.206327,92.6127621 395.909503,98.5015663 C401.632525,100.692342 403.195473,107.033906 409.19895,108.944262 C401.603311,111.789349 395.222974,115.846665 394.960048,126.029389 C415.541308,136.223797 416.771217,101.574494 438.626208,107.04559 C442.970329,97.093628 453.402647,88.3159213 447.165459,75.7262655 C448.354469,73.4303328 451.953633,73.5500952 451.910209,70.0273284 C449.645727,69.4548058 445.029916,71.2249523 444.320016,69.0838345 M358.892448,32.0684936 C367.744289,34.7675289 375.51229,28.5398847 375.976793,19.7271256 C368.340254,18.1789777 359.622798,22.7036591 357.940072,30.1669006 C358.679186,30.377215 359.044361,30.9614218 358.892448,32.0684936 M197.523097,59.5904745 C201.551707,60.7384408 205.629981,60.9458342 203.219826,66.2358265 C208.060585,65.1229126 212.761117,68.3039184 216.509273,70.9795855 C223.415461,69.3116751 227.540478,70.6582717 232.647084,72.8753364 C234.770942,64.8775457 242.679171,62.6634021 248.779053,58.6382175 C247.163519,54.0638785 248.282415,50.2051927 252.579794,49.1506995 C253.871053,39.8851802 246.918122,36.1813093 250.683806,27.3188926 C241.119143,25.1806958 238.218193,16.3737787 230.745253,12.1353586 C229.991532,14.2268189 228.843422,15.9239395 226.0009,15.9327026 C223.427147,15.3397328 223.637488,11.9659387 220.304171,12.1353586 C219.027519,16.6016194 214.02024,17.8284536 208.916555,15.9327026 C205.995155,22.5021078 200.982034,26.9800526 194.680575,30.1669006 C199.620662,34.6360823 194.256972,41.4099598 191.829289,44.4040195 C193.742805,50.660874 198.329403,52.0279179 197.523097,59.5904745 M201.320916,5.49292767 C202.971507,-2.35296924 189.41037,-1.28971292 193.725277,5.49292767 C197.929171,5.04016742 198.446259,6.7986298 201.320916,5.49292767" id="Fill-1" stroke="none" fill-opacity="0.177037806" fill="#191634" fill-rule="evenodd" mask="url(#mask-4)"></path>
                </g>
            </g>
            <g id="Group-133" mask="url(#mask-2)">
                <g transform="translate(25.000000, 18.000000)">
                    <path d="M135.351045,99.7174 C135.3995,102.6354 132.1395,106.6084 127.5145,110.6624 C127.2025,110.9354 126.8835,111.2094 126.5585,111.4854 C121.4205,115.8294 114.8715,120.1934 109.2965,123.3774 C103.8715,126.4724 96.3105,129.9684 89.1585,130.8984 C82.4005,131.7734 76.0025,130.3554 72.1145,124.1444 C71.6645,123.4304 71.2565,122.6754 70.8825,121.8914 C64.5535,108.6264 68.2805,86.2094 68.2805,86.2094 L84.3385,57.6814 C95.7245,67.9204 92.8035,94.4344 96.9665,97.4914 C97.0375,97.5434 97.1095,97.5924 97.1845,97.6374 C97.7055,97.9604 98.3225,98.1354 99.0185,98.1914 C103.5875,98.5654 111.6355,93.8104 119.7275,91.6824 C120.1635,91.5694 120.6005,91.4624 121.0365,91.3624 C121.4495,91.2704 121.8595,91.1864 122.2705,91.1104 C129.4905,89.7754 135.2465,93.4764 135.351045,99.7174" id="Fill-1" fill="#FEFEFE"></path>
                    <path d="M127.5146,110.6622 C127.2026,110.9352 126.8836,111.2092 126.5586,111.4852 C123.1596,108.3212 120.9696,103.9872 120.1086,98.6222 C119.7036,96.1042 119.6446,93.7072 119.7276,91.6832 C120.1636,91.5692 120.6006,91.4622 121.0356,91.3622 C120.9276,93.4102 120.9636,95.8822 121.3806,98.4562 C122.2166,103.6282 124.2716,107.7092 127.5146,110.6622" id="Fill-3" fill="#A7D8E9"></path>
                    <path d="M99.0185,98.191 C96.0665,100.169 92.0215,103.288 90.1395,106.585 C90.0225,106.792 89.8055,106.908 89.5815,106.908 C89.4745,106.908 89.3665,106.88 89.2655,106.824 C88.9565,106.647 88.8505,106.255 89.0255,105.948 C90.4555,103.442 92.9745,101.086 95.4085,99.198 C92.6515,99.734 90.0335,100.71 90.0005,100.722 C89.9255,100.75 89.8485,100.763 89.7745,100.763 C89.5155,100.763 89.2695,100.605 89.1725,100.348 C89.0485,100.017 89.2175,99.647 89.5495,99.521 C89.7245,99.457 93.7095,97.973 97.1845,97.637 C97.7065,97.96 98.3225,98.135 99.0185,98.191" id="Fill-5" fill="#A7D8E9"></path>
                    <path d="M89.1572,130.8975 C82.3992,131.7725 76.0032,130.3545 72.1132,124.1445 C71.6652,123.4305 71.2562,122.6755 70.8822,121.8905 C73.2182,121.1035 77.9472,120.3585 83.9152,123.8875 C87.7822,126.1735 88.9952,128.7525 89.1572,130.8975" id="Fill-7" fill="#D51247"></path>
                    <path d="M147.9208,78.6441 C147.9208,78.6441 142.1198,98.6011 131.5888,101.0161 L126.7088,94.8841 C126.7088,94.8841 136.8558,79.6691 147.9208,78.6441" id="Fill-9" fill="#A7D8E9"></path>
                    <path d="M126.4501,99.8453 L127.2601,100.3083 C127.6831,100.5503 128.2131,100.4953 128.5761,100.1703 C131.9511,97.1543 148.3311,82.4913 151.1231,79.5863 C151.3831,79.3173 151.4881,78.9363 151.4111,78.5713 L148.8641,66.5203 C148.8031,66.2293 148.6291,65.9743 148.3811,65.8103 L147.2601,65.0683 L149.8701,78.0563 L126.4501,99.8453 Z" id="Fill-11" fill="#000000"></path>
                    <path d="M126.3788,99.6695 L123.4808,87.7465 C123.3658,87.2795 123.6808,86.5235 124.1818,86.0575 L146.3798,65.3785 C146.8808,64.9125 147.3778,64.9125 147.4908,65.3785 L150.3908,77.3025 C150.5038,77.7685 150.1908,78.5255 149.6898,78.9915 L127.4908,99.6705 C126.9898,100.1365 126.4918,100.1365 126.3788,99.6695" id="Fill-13" fill="#000000"></path>
                    <path d="M130.3486,93.9776 L128.2406,85.3076 C128.1266,84.8406 128.4406,84.0836 128.9416,83.6176 L145.4026,68.2846 C145.9036,67.8176 146.4006,67.8176 146.5146,68.2846 L148.6216,76.9546 C148.7356,77.4216 148.4216,78.1776 147.9206,78.6446 L131.4596,93.9776 C130.9596,94.4446 130.4616,94.4446 130.3486,93.9776" id="Fill-15" fill="#017098"></path>
                    <path d="M127.3896,93.0162 C126.6176,93.7362 125.8486,93.7352 125.6736,93.0152 C125.4976,92.2952 125.9826,91.1282 126.7556,90.4082 C127.5286,89.6882 128.2966,89.6882 128.4716,90.4092 C128.6466,91.1292 128.1616,92.2962 127.3896,93.0162" id="Fill-17" fill="#017098"></path>
                    <path d="M128.2128,82.6431 C128.2128,82.6431 126.2108,78.0761 129.1568,75.8261 C132.1038,73.5751 138.2018,72.9971 138.2018,72.9971 C140.5738,74.8651 136.5688,77.0191 131.5208,79.2201 L128.2128,82.6431 Z" id="Fill-19" fill="#A7D8E9"></path>
                    <path d="M138.0185,91.69 C138.0185,91.69 141.1045,93.086 142.1195,91.339 C143.1335,89.592 141.2985,85.189 140.5485,83.688 C139.7995,82.186 138.9995,86 139.3715,87.715 C139.5895,88.728 139.5115,90.34 139.5115,90.34 L138.0185,91.69 Z" id="Fill-21" fill="#A7D8E9"></path>
                    <path d="M142.1747,87.3663 C142.1747,87.3663 145.4247,88.7093 146.6287,86.6363 C147.8327,84.5623 145.6537,79.3363 144.7647,77.5533 C143.8757,75.7723 142.7827,80.3343 143.3657,82.3343 C143.9487,84.3343 143.2637,85.2253 143.2637,85.2253 L142.1747,87.3663 Z" id="Fill-23" fill="#A7D8E9"></path>
                    <path d="M144.4374,85.2237 C144.4374,85.2237 147.3084,86.4097 148.3724,84.5777 C149.4354,82.7457 147.5114,78.1307 146.7254,76.5557 C145.9404,74.9817 144.9754,79.0117 145.4904,80.7787 C146.0044,82.5457 145.3994,83.3317 145.3994,83.3317 L144.4374,85.2237 Z" id="Fill-25" fill="#A7D8E9"></path>
                    <path d="M139.9306,90.5411 C139.9306,90.5411 143.1796,91.8841 144.3836,89.8101 C145.5876,87.7371 143.4096,82.5111 142.5206,80.7291 C141.6306,78.9461 140.5386,83.5091 141.1216,85.5091 C141.7046,87.5091 141.0196,88.4001 141.0196,88.4001 L139.9306,90.5411 Z" id="Fill-27" fill="#A7D8E9"></path>
                    <path d="M71.6054,51.8023 C71.6054,51.8023 78.1574,38.4873 64.2414,31.0993 C54.5054,25.9313 35.7104,24.9853 29.9734,36.8163 C24.6394,47.8193 36.6374,57.0753 36.6374,57.0753 C36.6374,57.0753 62.3334,62.5693 71.6054,51.8023" id="Fill-29" fill="#017098"></path>
                    <path d="M48.953,36.3892 C48.953,36.3892 36.923,38.0282 41.282,44.4422 C43.59,47.8372 56.624,49.6902 56.624,49.6902 C56.624,49.6902 59.178,37.9312 48.953,36.3892" id="Fill-31" fill="#000000"></path>
                    <path d="M99.329,157.6861 C99.329,157.6861 54.77,172.6501 35.568,165.1801 C35.568,165.1801 29.55,163.3071 27.134,151.5161 C27.055,151.1301 26.98,150.7351 26.909,150.3271 C25.891,144.4941 25.735,136.4231 27.429,125.2881 C29.46,111.9301 26.65,105.1071 25.447,91.8071 C25.404,91.3381 25.361,90.8621 25.321,90.3761 C25.192,88.9371 25.073,87.4241 24.953,85.8141 C23.66,68.2541 18.071,60.7481 26.819,55.5331 C35.568,50.3201 47.043,46.3221 47.043,46.3221 C47.043,46.3221 56.808,49.4201 63.685,46.3221 C63.685,46.3221 74.153,51.4511 82.201,54.3851 C90.247,57.3181 87.603,78.5831 90.14,90.7931 C92.678,103.0061 96.975,112.7191 100.857,132.9771 C104.407,151.5031 99.329,157.6861 99.329,157.6861" id="Fill-33" fill="#FEFEFE"></path>
                    <path d="M100.374,131.1666 C100.041,131.1666 99.76,130.9086 99.734,130.5716 C99.361,125.4626 95.478,112.4966 93.156,104.7496 C92.705,103.2436 92.314,101.9426 92.034,100.9736 C90.351,95.1686 88.438,81.5266 88.358,80.9486 C88.309,80.5976 88.554,80.2736 88.905,80.2256 C89.257,80.1766 89.58,80.4206 89.629,80.7716 C89.648,80.9126 91.607,94.9006 93.266,100.6156 C93.545,101.5796 93.935,102.8776 94.385,104.3816 C96.721,112.1786 100.631,125.2286 101.014,130.4786 C101.04,130.8316 100.774,131.1386 100.421,131.1646 C100.405,131.1656 100.39,131.1666 100.374,131.1666" id="Fill-35" fill="#A7D8E9"></path>
                    <path d="M60.165,65.0435 C67.586,65.0435 69.909,58.3935 69.933,58.3235 C70.019,58.0685 69.882,57.7935 69.627,57.7075 C69.372,57.6215 69.098,57.7595 69.012,58.0125 C68.922,58.2775 66.72,64.5035 59.42,64.0475 C51.835,63.5735 42.09,58.5625 41.992,58.5125 C41.753,58.3885 41.46,58.4815 41.337,58.7195 C41.214,58.9585 41.307,59.2515 41.545,59.3755 C41.95,59.5855 51.567,64.5315 59.359,65.0185 C59.634,65.0355 59.903,65.0435 60.165,65.0435" id="Fill-40" fill="#A7D8E9"></path>
                    <path d="M86.8495,122.6885 C86.8495,122.6885 91.9965,138.4435 90.1105,147.1925 C90.1105,147.1925 73.1705,157.2885 47.9205,152.2155 C47.9205,152.2155 46.5075,136.6375 45.5145,126.6235 C45.5145,126.6235 71.2965,122.4435 86.8495,122.6885" id="Fill-42" fill="#017098"></path>
                    <path d="M57.2646,134.7999 C57.4576,134.7999 57.6186,134.6479 57.6276,134.4519 C59.1826,100.8019 49.7706,50.3279 49.6756,49.8219 C49.6376,49.6239 49.4466,49.4949 49.2496,49.5309 C49.0516,49.5689 48.9216,49.7589 48.9586,49.9569 C49.0536,50.4619 58.4506,100.8539 56.9006,134.4189 C56.8906,134.6199 57.0456,134.7899 57.2466,134.7999 C57.2526,134.7999 57.2586,134.7999 57.2646,134.7999" id="Fill-44" fill="#FFFFFF"></path>
                    <path d="M79.747,132.5318 C79.751,132.5318 79.755,132.5318 79.759,132.5318 C79.96,132.5258 80.118,132.3578 80.112,132.1568 C78.889,91.5198 65.091,50.0588 64.951,49.6448 C64.887,49.4538 64.681,49.3508 64.489,49.4148 C64.299,49.4798 64.196,49.6858 64.26,49.8768 C64.398,50.2898 78.164,91.6528 79.384,132.1778 C79.39,132.3758 79.551,132.5318 79.747,132.5318" id="Fill-46" fill="#FFFFFF"></path>
                    <path d="M70.4685,94.8928 C57.2635,117.9978 27.4285,125.2868 27.4285,125.2868 C27.4285,125.2868 25.9345,121.4898 27.5105,115.9738 C27.5105,115.9738 55.1135,110.8418 66.6725,87.7548 C76.0765,68.9748 71.6055,50.2228 71.6055,50.2228 C71.6055,50.2228 75.6655,50.2228 77.7285,52.2828 C77.7285,52.2828 80.3505,77.6018 70.4685,94.8928 Z" id="Fill-48" fill="#000000"></path>
                    <path d="M54.7519,115.7877 C54.9239,115.7787 55.0959,115.7667 55.2679,115.7537 C56.1199,115.6847 56.9709,115.5647 57.8059,115.3927 C58.2589,115.3037 58.7029,115.1987 59.1479,115.0787 C59.8189,114.9017 60.4829,114.6907 61.1379,114.4497 C61.6089,114.2817 62.0749,114.0917 62.5359,113.8907 C68.9749,111.0787 74.3529,105.4607 76.9119,98.9097 C77.0969,98.4367 77.2689,97.9597 77.4209,97.4747 C77.6999,96.6147 77.9259,95.7417 78.0989,94.8567 C78.1899,94.4137 78.2629,93.9697 78.3219,93.5197 C78.4309,92.7227 78.4949,91.9207 78.5129,91.1157 C78.5149,90.9427 78.5179,90.7707 78.5170986,90.5987 C78.4809,82.3827 66.6429,77.4737 66.6429,77.4737 L63.4709,83.0227 L62.7439,84.2937 L57.0869,94.1877 L47.7219,100.2907 L46.5109,101.0777 L40.9579,104.6977 C40.9579,104.6977 46.5479,116.2297 54.7519,115.7877" id="Fill-50" fill="#000000"></path>
                    <path d="M57.8056,115.3926 C58.2586,115.3036 58.7026,115.1986 59.1476,115.0786 C56.8776,108.8986 51.6606,103.6126 47.7216,100.2906 L46.5106,101.0776 C50.3216,104.2636 55.5446,109.4446 57.8056,115.3926" id="Fill-52" fill="#017098"></path>
                    <path d="M67.579,89.3419 C71.192,92.5389 74.736,94.3879 78.099,94.8569 C78.189,94.4139 78.263,93.9689 78.322,93.5199 C72.272,92.6839 66.691,86.9949 63.471,83.0229 L62.744,84.2939 C64.045,85.8709 65.687,87.6689 67.579,89.3419" id="Fill-54" fill="#017098"></path>
                    <path d="M66.6406,77.4732 C66.6406,77.4732 76.0986,82.4292 70.6616,90.6872 C65.2246,98.9452 55.8216,109.0752 50.0536,109.6712 C44.2856,110.2662 40.9026,104.7552 40.9026,104.7552 L66.6406,77.4732 Z" id="Fill-56" fill="#017098"></path>
                    <path d="M61.1376,114.4498 C61.6096,114.2818 62.0746,114.0918 62.5356,113.8908 C62.6526,110.9768 63.4966,107.2858 66.3696,104.0208 C69.4406,100.5258 73.6196,99.2918 76.9116,98.9088 C77.0966,98.4368 77.2686,97.9598 77.4206,97.4748 C73.8056,97.7828 68.9446,99.0418 65.3546,103.1298 C61.9896,106.9568 61.1576,111.2288 61.1376,114.4498" id="Fill-58" fill="#017098"></path>
                    <g id="Group-62" stroke-width="1" fill="none" transform="translate(0.000000, 56.387000)">
                        <mask id="mask-6" fill="white">
                            <use xlink:href="#path-5"></use>
                        </mask>
                        <g id="Clip-61"></g>
                        <path d="M47.5448,94.4915 C47.5448,94.4915 27.0868,97.9805 13.0098,89.6685 C5.0178,84.9475 -0.9172,76.4235 0.1168,61.2965 C0.1328,61.0675 0.1488,60.8365 0.1688,60.6055 C3.4838,19.7695 24.5598,1.2945 24.5598,1.2945 C32.4528,-0.7555 41.2298,1.3505 29.0558,53.3295 C25.4828,74.4175 45.8198,76.1445 45.8198,76.1445 L47.5448,94.4915 Z" id="Fill-60" fill="#FEFEFE" mask="url(#mask-6)"></path>
                    </g>
                    <path d="M28.6415,114.5347 C28.5755,114.5347 28.5085,114.5247 28.4435,114.5027 C28.1065,114.3937 27.9215,114.0317 28.0315,113.6947 C28.1135,113.4427 36.2325,88.2967 36.3725,75.0097 C36.3765,74.6557 36.6605,74.3797 37.0205,74.3747 C37.3745,74.3787 37.6595,74.6687 37.6555416,75.0227 C37.5135,88.5057 29.3335,113.8367 29.2505,114.0917 C29.1625,114.3627 28.9125,114.5347 28.6415,114.5347" id="Fill-63" fill="#A7D8E9"></path>
                    <path d="M35.9745,85.5806 C35.8605,85.5806 35.7445,85.5496 35.6385,85.4846 C35.3365,85.2986 35.2435,84.9036 35.4295,84.6016 L39.1765,78.5276 C39.3625,78.2266 39.7565,78.1326 40.0595,78.3186 C40.3605,78.5046 40.4535,78.8996 40.2685,79.2016 L36.5215,85.2756 C36.4005,85.4726 36.1895,85.5806 35.9745,85.5806" id="Fill-65" fill="#A7D8E9"></path>
                    <path d="M43.2079,152.2466 C42.9589,152.2466 42.7219,152.1006 42.6169,151.8566 C40.2659,146.3446 40.8019,130.7796 40.8259,130.1196 C40.8389,129.7666 41.1379,129.4896 41.4899,129.5016 C41.8439,129.5156 42.1199,129.8126 42.1069,130.1666 C42.1019,130.3256 41.5579,146.1036 43.7979,151.3536 C43.9369,151.6796 43.7849,152.0566 43.4589,152.1956 C43.3769,152.2296 43.2919,152.2466 43.2079,152.2466" id="Fill-67" fill="#A7D8E9"></path>
                    <path d="M41.7597,130.7886 C41.4967,130.7886 41.2287,130.7806 40.9507,130.7626 C38.2027,130.5866 34.2087,129.3816 30.7877,124.6466 C30.5807,124.3596 30.6457,123.9586 30.9327,123.7506 C31.2197,123.5436 31.6207,123.6086 31.8277,123.8956 C37.7927,132.1546 45.5857,128.8406 45.6637,128.8066 C45.9877,128.6636 46.3657,128.8096 46.5097,129.1346 C46.6527,129.4586 46.5057,129.8366 46.1817,129.9796 C46.0997,130.0166 44.3177,130.7886 41.7597,130.7886" id="Fill-71" fill="#A7D8E9"></path>
                    <g id="Group-75" stroke-width="1" fill="none" transform="translate(0.000000, 117.387000)">
                        <mask id="mask-8" fill="white">
                            <use xlink:href="#path-7"></use>
                        </mask>
                        <g id="Clip-74"></g>
                        <path d="M13.0097,28.6682 C5.0177,23.9472 -0.9173,15.4232 0.1167,0.2962 C5.7417,6.5182 14.7907,18.3772 13.0097,28.6682" id="Fill-73" fill="#5C84CD" mask="url(#mask-8)"></path>
                    </g>
                    <path d="M62.7431,44.2515 L62.7431,48.7095 C62.2221,49.1305 61.6941,49.4975 61.1651,49.8145 C53.4251,54.4625 45.0751,48.7095 45.0751,48.7095 L45.0751,33.2535 L60.6361,42.9395 L62.7431,44.2515 Z" id="Fill-76" fill="#A7D8E9"></path>
                    <path d="M62.7431,44.1231 L62.7431,48.7091 C62.2221,49.1301 61.6941,49.4971 61.1651,49.8141 C54.5741,47.2061 49.7771,40.2901 49.7771,40.2901 L60.6361,42.9401 L62.7431,44.1231 Z" id="Fill-78" fill="#000000"></path>
                    <path d="M64.9892,7.2882 C64.9892,7.2882 73.6272,9.4672 70.4442,16.5212 C70.4442,16.5212 64.7402,10.2332 64.9892,7.2882" id="Fill-80" fill="#121032"></path>
                    <path d="M67.6806,24.4976 C67.6806,24.4976 70.2126,21.5066 71.6436,24.4976 C73.0746,27.4886 71.9736,33.5426 68.1206,32.5516 L67.6806,24.4976 Z" id="Fill-82" fill="#017098"></path>
                    <path d="M71.0136001,34.9859 C71.0136001,34.9859 71.0276,44.2019 61.4416,44.1809358 C51.9146,44.1629 45.4226,36.6819 45.0846,36.3359 C45.0786,36.3299 45.0746,36.3269 45.0746,36.3269 L44.9706,34.3899 L44.4286,24.3369 L44.1386,18.9629 C44.1386,18.9629 42.9216,9.2879 52.1176,7.5239 C58.8346,6.2339 65.1346,7.3489 68.3146,10.8539 C69.4846,12.1469 70.2316,13.7659 70.4186,15.7079 L70.7166,25.3599 L70.7886,27.7249 L71.0136001,34.9859 Z" id="Fill-84" fill="#A7D8E9"></path>
                    <path d="M57.6542,29.0147 C57.6542,29.0147 63.4002,31.4077 67.8322,30.7077 C67.8322,30.7077 66.6342,36.2907 61.4962,34.8437 C58.0962,33.8867 57.6542,29.0147 57.6542,29.0147" id="Fill-86" fill="#FFFFFF"></path>
                    <path d="M40.9716,19.8155 C41.1706,21.8215 41.8816,22.9075 42.3556,23.6475 C45.0756,24.2375 46.3106,25.7225 46.8266,27.1115 L49.2196,27.4275 C49.2196,27.4275 49.5346,23.5215 48.7166,20.5605 C48.0856,18.2815 50.2226,17.5695 50.7186,15.5755 C50.8656,14.9825 50.9796,14.7225 50.7186,13.8265 C50.7186,13.8265 54.1346,11.2015 58.2136,12.4605 C62.2936,13.7225 66.0266,14.1575 67.8936,11.6795 C68.0786,11.4335 68.2436,11.1765 68.3136,10.8545 C65.1356,7.3495 58.8346,6.2325 52.1176,7.5235 C42.9216,9.2875 40.8346,13.7475 40.8346,13.7475 C40.1256,16.0165 40.7776,17.8615 40.9716,19.8155" id="Fill-88" fill="#000000"></path>
                    <path d="M48.6337,19.376 C46.1457,19.946 43.6847,20.613 41.3357,21.623 C41.6387,22.578 42.0467,23.228 42.3557,23.647 C45.0747,24.238 46.3107,25.722 46.8267,27.112 L49.2197,27.427 C49.2197,27.427 49.5347,23.522 48.7167,20.56 C48.5927,20.112 48.5767,19.725 48.6337,19.376" id="Fill-90" fill="#017098"></path>
                    <g id="Group-94" stroke-width="1" fill="none" transform="translate(39.355468, 0.000000)">
                        <mask id="mask-10" fill="white">
                            <use xlink:href="#path-9"></use>
                        </mask>
                        <g id="Clip-93"></g>
                        <path d="M0.0429321544,13.5313 C0.0429321544,13.5313 14.9739322,7.6263 25.5869322,7.2673 C25.8639322,7.2583 26.1389322,7.2523 26.4099322,7.2523 C27.5179322,7.2443 28.5629322,7.3093 29.5199322,7.4583 C29.5199322,7.4583 27.4939322,2.0303 20.2359322,0.4363 C19.4089322,0.2543 18.5149322,0.1223 17.5469322,0.0523 C16.2729322,-0.0367 14.8729322,-0.0167 13.3359322,0.1453 C13.2849322,0.1493 13.2349322,0.1543 13.1839322,0.1603 C12.7819322,0.2043 12.3919322,0.2573 12.0149322,0.3213 C10.8469322,0.5103 9.78793215,0.7803 8.82693215,1.1173 C8.57493215,1.2033 8.33093215,1.2963 8.09293215,1.3913 C6.31293215,2.1103 4.89693215,3.0563 3.77393215,4.1083 C3.40593215,4.4523 3.06893215,4.8073 2.76193215,5.1693 C-0.561067846,9.0733 0.0429321544,13.5313 0.0429321544,13.5313" id="Fill-92" fill="#A7D8E9" mask="url(#mask-10)"></path>
                    </g>
                    <path d="M56.9023,0.0523 C59.3073,0.9203 62.9293,2.9023 64.9423,7.2673 C65.0543,7.5083 65.1613,7.7573 65.2623,8.0133 L65.9673,7.7353 C65.9023,7.5723 65.8353,7.4093 65.7653,7.2523 C64.2133,3.6763 61.6593,1.5993 59.5913,0.4363 C58.7643,0.2543 57.8703,0.1223 56.9023,0.0523" id="Fill-95" fill="#000000"></path>
                    <path d="M51.37,0.3209 C55.075,1.9439 56.869,6.2069 56.891,6.2569 L57.591,5.9689 C57.511,5.7719 55.962,2.0989 52.691,0.1449 C52.641,0.1499 52.591,0.1539 52.539,0.1599 C52.138,0.2039 51.747,0.2579 51.37,0.3209" id="Fill-97" fill="#000000"></path>
                    <path d="M47.4482,1.3917 C47.7102,3.2767 48.6342,7.1717 51.8402,9.1637 L52.2402,8.5217 C49.2302,6.6517 48.4032,2.8007 48.1822,1.1177 C47.9302,1.2037 47.6862,1.2957 47.4482,1.3917" id="Fill-99" fill="#000000"></path>
                    <path d="M42.9599,12.1807 L43.6149,11.7987 C42.2269,9.4267 42.5969,6.2827 43.1299,4.1077 C42.7619,4.4517 42.4249,4.8067 42.1169,5.1697 C41.7379,7.3307 41.6879,10.0097 42.9599,12.1807" id="Fill-101" fill="#000000"></path>
                    <path d="M69.9394,10.3336 C69.9394,10.3336 54.5784,7.3586 40.7544,18.2746 C40.7544,18.2746 38.5084,16.4366 39.3984,13.3496 C39.3984,13.3496 52.6154,1.4746 68.8754,6.5806 C68.8754,6.5806 70.5954,7.9966 69.9394,10.3336" id="Fill-103" fill="#000000"></path>
                    <path d="M58.2138,26.5455 C58.2138,27.2165 56.8308,27.7605 55.1268,27.7605 C53.4218,27.7605 52.0398,27.2165 52.0398,26.5455 C52.0398,25.8745 53.4218,25.3305 55.1268,25.3305 C56.8308,25.3305 58.2138,25.8745 58.2138,26.5455" id="Fill-105" fill="#01ABE8"></path>
                    <path d="M70.789,27.7252 C70.552,27.7482 70.302,27.7612 70.046,27.7612 C68.343,27.7612 66.96,27.2162 66.96,26.5452 C66.96,25.8742 68.343,25.3302 70.046,25.3302 C70.276,25.3302 70.501,25.3402 70.717,25.3602 L70.789,27.7252 Z" id="Fill-107" fill="#01ABE8"></path>
                    <path d="M58.1132,22.8526 C58.1132,23.7736 57.6952,24.5206 57.1792,24.5206 C56.6642,24.5206 56.2462,23.7736 56.2462,22.8526 C56.2462,21.9306 56.6642,21.1846 57.1792,21.1846 C57.6952,21.1846 58.1132,21.9306 58.1132,22.8526" id="Fill-109" fill="#000000"></path>
                    <path d="M67.2304,22.8526 C67.2304,23.7736 66.8124,24.5206 66.2964,24.5206 C65.7814,24.5206 65.3634,23.7736 65.3634,22.8526 C65.3634,21.9306 65.7814,21.1846 66.2964,21.1846 C66.8124,21.1846 67.2304,21.9306 67.2304,22.8526" id="Fill-111" fill="#000000"></path>
                    <path d="M53.4989,18.6231 C53.7099,17.6501 54.5199,15.8231 57.6319,15.6851 C58.0119,15.6681 58.3529,15.9181 58.4539,16.2851 C58.5799,16.7451 58.2879,17.2201 57.8179,17.3041 C56.9929,17.4511 55.7959,17.9011 55.1109,19.2481 C54.8979,19.6681 54.3589,19.8031 53.9589,19.5551 L53.8649,19.4971 C53.5689,19.3131 53.4259,18.9631 53.4989,18.6231" id="Fill-113" fill="#000000"></path>
                    <path d="M69.4423,18.6231 C69.2313,17.6501 68.4213,15.8231 65.3093,15.6851 C64.9293,15.6681 64.5883,15.9181 64.4873,16.2851 C64.3613,16.7451 64.6533,17.2201 65.1233,17.3041 C65.9493,17.4511 67.1453,17.9011 67.8303,19.2481 C68.0443,19.6681 68.5823,19.8031 68.9823,19.5551 L69.0763,19.4971 C69.3723,19.3131 69.5153,18.9631 69.4423,18.6231" id="Fill-115" fill="#000000"></path>
                    <path d="M48.0849,32.5963 C48.0419,32.6983 46.8279,35.5123 45.0839,36.3363 C45.0789,36.3303 45.0749,36.3263 45.0749,36.3263 L44.9709,34.3893 C44.9709,34.3893 46.4839,34.1313 48.0849,32.5963" id="Fill-117" fill="#37202B"></path>
                    <path d="M46.3974,26.1959 C46.3974,26.1959 42.7124,21.2459 40.0124,25.1359 C37.7884,28.3409 41.9944,36.6939 46.3974,33.8319 L46.3974,26.1959 Z" id="Fill-119" fill="#A7D8E9"></path>
                    <path d="M42.664,32.2598 C42.664,32.7288 43.045,33.1088 43.514,33.1088 C43.982,33.1088 44.362,32.7288 44.362,32.2598 C44.362,31.7908 43.982,31.4108 43.514,31.4108 C43.045,31.4108 42.664,31.7908 42.664,32.2598" id="Fill-121" fill="#FFFFFF"></path>
                    <path d="M45.8935,32.3409 C45.9075,32.3409 45.9205,32.3409 45.9355,32.3389 C46.1435,32.3159 46.2935,32.1289 46.2705,31.9209 C45.8105,27.7119 42.2675,26.2539 42.1175,26.1939 C41.9225,26.1159 41.7025,26.2109 41.6245,26.4049 C41.5475,26.5999 41.6415,26.8199 41.8355,26.8979 C41.9695,26.9509 45.1075,28.2579 45.5165,32.0039 C45.5385,32.1969 45.7025,32.3409 45.8935,32.3409" id="Fill-123" fill="#37202B"></path>
                    <path d="M42.3554,30.0425 C42.4394,30.0425 42.5234,30.0155 42.5934,29.9585 C42.9234,29.6905 43.9234,29.0345 44.5774,29.2015 C44.7804,29.2525 44.9864,29.1305 45.0394,28.9285 C45.0904,28.7255 44.9674,28.5185 44.7654,28.4665 C43.6264,28.1745 42.2674,29.2465 42.1164,29.3695 C41.9534,29.5015 41.9284,29.7405 42.0604,29.9025 C42.1354,29.9955 42.2454,30.0425 42.3554,30.0425" id="Fill-125" fill="#37202B"></path>
                    <path d="M62.5429,27.4918 C64.7899,27.4918 65.5479,25.9228 65.5789,25.8558 C65.6269,25.7518 65.6259,25.6328 65.5759,25.5298 C64.0359,22.3548 62.4759,19.0928 62.4599,19.0598 C62.3689,18.8708 62.1429,18.7908 61.9539,18.8818 C61.7649,18.9718 61.6859,19.1978 61.7749,19.3868 C61.7909,19.4188 63.2939,22.5608 64.8059,25.6788 C64.5889,25.9978 63.9389,26.7338 62.5429,26.7338 C62.3329,26.7338 62.1629,26.9038 62.1629,27.1128 C62.1629,27.3218 62.3329,27.4918 62.5429,27.4918" id="Fill-127" fill="#000000"></path>
                    <path d="M44.9833,45.5133 C44.9833,45.5133 53.4263,51.5833 55.9493,51.5563 C55.9493,51.5563 52.6703,55.3323 47.4843,55.8413 C40.6793,56.5103 28.6073,54.5053 28.6073,54.5053 C28.6073,54.5053 37.8893,48.7233 44.9833,45.5133" id="Fill-129" fill="#5C84CD"></path>
                    <path d="M62.7431,45.3614 C62.7431,45.3614 61.0511,50.3144 55.9491,51.5564 C55.9491,51.5564 57.0911,56.2064 62.2511,55.4764 C67.4111,54.7474 72.2201,50.2224 72.2201,50.2224 C72.2201,50.2224 66.8161,45.3614 62.7431,45.3614" id="Fill-131" fill="#017098"></path>
                </g>
            </g>
        </g>
    </g>
</svg>